<svg xmlns="http://www.w3.org/2000/svg" viewBox="-1 -1 255 45" style="">
  <!-- З -->
  <g>
    <path stroke="#a11ec6" stroke-width="1" fill="none" d="M0,10L10,0L30,10L20,20L30,30L10,40L0,30" class="qAqoKqoM_0"></path>
  </g>
  <!-- О -->
  <g>
    <path stroke="#a11ec6" stroke-width="1" fill="none" d="M60,0L70,10L70,30L50,40L40,30L40,10Z" class="qAqoKqoM_1"></path>
  </g>
  <!-- Л -->
  <g>
    <path stroke="#a11ec6" stroke-width="1" fill="none" d="M70,40L80,30L80,10L100,0L100,30" class="qAqoKqoM_2"></path>
  </g>
  <!-- О -->
  <g>
    <path stroke="#a11ec6" stroke-width="1" fill="none" d="M130,0L140,10L140,30L120,40L110,30L110,10Z" class="qAqoKqoM_3"></path>
  </g>
  <!-- Т -->
  <g>
    <path stroke="#a11ec6" stroke-width="1" fill="none" d="M150,10L140,0L180,0" class="qAqoKqoM_4"></path>
    <path stroke="#a11ec6" stroke-width="1" fill="none" d="M160,0L160,40L165,35" class="qAqoKqoM_5"></path>
  </g>
  <!-- О -->
  <g>
    <path stroke="#a11ec6" stroke-width="1" fill="none" d="M200,0L210,10L210,30L190,40L180,30L180,10Z" class="qAqoKqoM_6"></path>
  </g>
  <!-- В -->
  <g>
    <path stroke="#a11ec6" stroke-width="1" fill="none" d="M240,10L230,0L220,10L230,20L220,30L230,40L240,40L250,30L250,0" class="qAqoKqoM_7"></path>
  </g>
<style data-made-with="vivus-instant">.qAqoKqoM_0{stroke-dasharray:102 104;stroke-dashoffset:103;animation:qAqoKqoM_draw 4000ms ease-in-out 0ms forwards;}.qAqoKqoM_1{stroke-dasharray:114 116;stroke-dashoffset:115;animation:qAqoKqoM_draw 4000ms ease-in-out 0ms forwards;}.qAqoKqoM_2{stroke-dasharray:87 89;stroke-dashoffset:88;animation:qAqoKqoM_draw 4000ms ease-in-out 0ms forwards;}.qAqoKqoM_3{stroke-dasharray:114 116;stroke-dashoffset:115;animation:qAqoKqoM_draw 4000ms ease-in-out 0ms forwards;}.qAqoKqoM_4{stroke-dasharray:55 57;stroke-dashoffset:56;animation:qAqoKqoM_draw 4000ms ease-in-out 0ms forwards;}.qAqoKqoM_5{stroke-dasharray:48 50;stroke-dashoffset:49;animation:qAqoKqoM_draw 4000ms ease-in-out 0ms forwards;}.qAqoKqoM_6{stroke-dasharray:114 116;stroke-dashoffset:115;animation:qAqoKqoM_draw 4000ms ease-in-out 0ms forwards;}.qAqoKqoM_7{stroke-dasharray:125 127;stroke-dashoffset:126;animation:qAqoKqoM_draw 4000ms ease-in-out 0ms forwards;}@keyframes qAqoKqoM_draw{100%{stroke-dashoffset:0;}}@keyframes qAqoKqoM_fade{0%{stroke-opacity:1;}100%{stroke-opacity:1;}100%{stroke-opacity:0;}}</style></svg>
